<svg xmlns="http://www.w3.org/2000/svg" viewBox="0 0 180 180" width="180" height="180" shape-rendering="crispEdges" role="img" aria-label="SimLens logo">
<rect x="50.3" y="10.3" width="9.4" height="9.4" fill="#4f46e5"/>
<rect x="60.3" y="10.3" width="9.4" height="9.4" fill="#4f46e5"/>
<rect x="70.3" y="10.3" width="9.4" height="9.4" fill="#4f46e5"/>
<rect x="80.3" y="10.3" width="9.4" height="9.4" fill="#4f46e5"/>
<rect x="90.3" y="10.3" width="9.4" height="9.4" fill="#4f46e5"/>
<rect x="30.3" y="20.3" width="9.4" height="9.4" fill="#4f46e5"/>
<rect x="40.3" y="20.3" width="9.4" height="9.4" fill="#4f46e5"/>
<rect x="50.3" y="20.3" width="9.4" height="9.4" fill="#4f46e5"/>
<rect x="60.3" y="20.3" width="9.4" height="9.4" fill="#4f46e5"/>
<rect x="70.3" y="20.3" width="9.4" height="9.4" fill="#4f46e5"/>
<rect x="80.3" y="20.3" width="9.4" height="9.4" fill="#4f46e5"/>
<rect x="90.3" y="20.3" width="9.4" height="9.4" fill="#4f46e5"/>
<rect x="100.3" y="20.3" width="9.4" height="9.4" fill="#4f46e5"/>
<rect x="110.3" y="20.3" width="9.4" height="9.4" fill="#4f46e5"/>
<rect x="20.3" y="30.3" width="9.4" height="9.4" fill="#4f46e5"/>
<rect x="30.3" y="30.3" width="9.4" height="9.4" fill="#4f46e5"/>
<rect x="40.3" y="30.3" width="9.4" height="9.4" fill="#4f46e5"/>
<rect x="50.3" y="30.3" width="9.4" height="9.4" fill="#4f46e5"/>
<rect x="60.3" y="30.3" width="9.4" height="9.4" fill="#eab308"/>
<rect x="70.3" y="30.3" width="9.4" height="9.4" fill="#eab308"/>
<rect x="80.3" y="30.3" width="9.4" height="9.4" fill="#22c55e"/>
<rect x="90.3" y="30.3" width="9.4" height="9.4" fill="#4f46e5"/>
<rect x="100.3" y="30.3" width="9.4" height="9.4" fill="#4f46e5"/>
<rect x="110.3" y="30.3" width="9.4" height="9.4" fill="#4f46e5"/>
<rect x="120.3" y="30.3" width="9.4" height="9.4" fill="#4f46e5"/>
<rect x="20.3" y="40.3" width="9.4" height="9.4" fill="#4f46e5"/>
<rect x="30.3" y="40.3" width="9.4" height="9.4" fill="#4f46e5"/>
<rect x="40.3" y="40.3" width="9.4" height="9.4" fill="#f59e0b"/>
<rect x="50.3" y="40.3" width="9.4" height="9.4" fill="#f59e0b"/>
<rect x="60.3" y="40.3" width="9.4" height="9.4" fill="#eab308"/>
<rect x="70.3" y="40.3" width="9.4" height="9.4" fill="#eab308"/>
<rect x="80.3" y="40.3" width="9.4" height="9.4" fill="#22c55e"/>
<rect x="90.3" y="40.3" width="9.4" height="9.4" fill="#22c55e"/>
<rect x="100.3" y="40.3" width="9.4" height="9.4" fill="#3b82f6"/>
<rect x="110.3" y="40.3" width="9.4" height="9.4" fill="#4f46e5"/>
<rect x="120.3" y="40.3" width="9.4" height="9.4" fill="#4f46e5"/>
<rect x="10.3" y="50.3" width="9.4" height="9.4" fill="#4f46e5"/>
<rect x="20.3" y="50.3" width="9.4" height="9.4" fill="#4f46e5"/>
<rect x="30.3" y="50.3" width="9.4" height="9.4" fill="#4f46e5"/>
<rect x="40.3" y="50.3" width="9.4" height="9.4" fill="#f59e0b"/>
<rect x="50.3" y="50.3" width="9.4" height="9.4" fill="#f59e0b"/>
<rect x="60.3" y="50.3" width="9.4" height="9.4" fill="#eab308"/>
<rect x="70.3" y="50.3" width="9.4" height="9.4" fill="#eab308"/>
<rect x="80.3" y="50.3" width="9.4" height="9.4" fill="#22c55e"/>
<rect x="90.3" y="50.3" width="9.4" height="9.4" fill="#22c55e"/>
<rect x="100.3" y="50.3" width="9.4" height="9.4" fill="#3b82f6"/>
<rect x="110.3" y="50.3" width="9.4" height="9.4" fill="#4f46e5"/>
<rect x="120.3" y="50.3" width="9.4" height="9.4" fill="#4f46e5"/>
<rect x="130.3" y="50.3" width="9.4" height="9.4" fill="#4f46e5"/>
<rect x="10.3" y="60.3" width="9.4" height="9.4" fill="#4f46e5"/>
<rect x="20.3" y="60.3" width="9.4" height="9.4" fill="#4f46e5"/>
<rect x="30.3" y="60.3" width="9.4" height="9.4" fill="#ef4444"/>
<rect x="40.3" y="60.3" width="9.4" height="9.4" fill="#f59e0b"/>
<rect x="50.3" y="60.3" width="9.4" height="9.4" fill="#f59e0b"/>
<rect x="60.3" y="60.3" width="9.4" height="9.4" fill="#eab308"/>
<rect x="70.3" y="60.3" width="9.4" height="9.4" fill="#eab308"/>
<rect x="80.3" y="60.3" width="9.4" height="9.4" fill="#22c55e"/>
<rect x="90.3" y="60.3" width="9.4" height="9.4" fill="#22c55e"/>
<rect x="100.3" y="60.3" width="9.4" height="9.4" fill="#3b82f6"/>
<rect x="110.3" y="60.3" width="9.4" height="9.4" fill="#3b82f6"/>
<rect x="120.3" y="60.3" width="9.4" height="9.4" fill="#4f46e5"/>
<rect x="130.3" y="60.3" width="9.4" height="9.4" fill="#4f46e5"/>
<rect x="10.3" y="70.3" width="9.4" height="9.4" fill="#4f46e5"/>
<rect x="20.3" y="70.3" width="9.4" height="9.4" fill="#4f46e5"/>
<rect x="30.3" y="70.3" width="9.4" height="9.4" fill="#ef4444"/>
<rect x="40.3" y="70.3" width="9.4" height="9.4" fill="#f59e0b"/>
<rect x="50.3" y="70.3" width="9.4" height="9.4" fill="#f59e0b"/>
<rect x="60.3" y="70.3" width="9.4" height="9.4" fill="#eab308"/>
<rect x="70.3" y="70.3" width="9.4" height="9.4" fill="#eab308"/>
<rect x="80.3" y="70.3" width="9.4" height="9.4" fill="#22c55e"/>
<rect x="90.3" y="70.3" width="9.4" height="9.4" fill="#22c55e"/>
<rect x="100.3" y="70.3" width="9.4" height="9.4" fill="#3b82f6"/>
<rect x="110.3" y="70.3" width="9.4" height="9.4" fill="#3b82f6"/>
<rect x="120.3" y="70.3" width="9.4" height="9.4" fill="#4f46e5"/>
<rect x="130.3" y="70.3" width="9.4" height="9.4" fill="#4f46e5"/>
<rect x="10.3" y="80.3" width="9.4" height="9.4" fill="#4f46e5"/>
<rect x="20.3" y="80.3" width="9.4" height="9.4" fill="#4f46e5"/>
<rect x="30.3" y="80.3" width="9.4" height="9.4" fill="#ef4444"/>
<rect x="40.3" y="80.3" width="9.4" height="9.4" fill="#f59e0b"/>
<rect x="50.3" y="80.3" width="9.4" height="9.4" fill="#f59e0b"/>
<rect x="60.3" y="80.3" width="9.4" height="9.4" fill="#eab308"/>
<rect x="70.3" y="80.3" width="9.4" height="9.4" fill="#eab308"/>
<rect x="80.3" y="80.3" width="9.4" height="9.4" fill="#22c55e"/>
<rect x="90.3" y="80.3" width="9.4" height="9.4" fill="#22c55e"/>
<rect x="100.3" y="80.3" width="9.4" height="9.4" fill="#3b82f6"/>
<rect x="110.3" y="80.3" width="9.4" height="9.4" fill="#3b82f6"/>
<rect x="120.3" y="80.3" width="9.4" height="9.4" fill="#4f46e5"/>
<rect x="130.3" y="80.3" width="9.4" height="9.4" fill="#4f46e5"/>
<rect x="10.3" y="90.3" width="9.4" height="9.4" fill="#4f46e5"/>
<rect x="20.3" y="90.3" width="9.4" height="9.4" fill="#4f46e5"/>
<rect x="30.3" y="90.3" width="9.4" height="9.4" fill="#4f46e5"/>
<rect x="40.3" y="90.3" width="9.4" height="9.4" fill="#f59e0b"/>
<rect x="50.3" y="90.3" width="9.4" height="9.4" fill="#f59e0b"/>
<rect x="60.3" y="90.3" width="9.4" height="9.4" fill="#eab308"/>
<rect x="70.3" y="90.3" width="9.4" height="9.4" fill="#eab308"/>
<rect x="80.3" y="90.3" width="9.4" height="9.4" fill="#22c55e"/>
<rect x="90.3" y="90.3" width="9.4" height="9.4" fill="#22c55e"/>
<rect x="100.3" y="90.3" width="9.4" height="9.4" fill="#3b82f6"/>
<rect x="110.3" y="90.3" width="9.4" height="9.4" fill="#4f46e5"/>
<rect x="120.3" y="90.3" width="9.4" height="9.4" fill="#4f46e5"/>
<rect x="130.3" y="90.3" width="9.4" height="9.4" fill="#4f46e5"/>
<rect x="20.3" y="100.3" width="9.4" height="9.4" fill="#4f46e5"/>
<rect x="30.3" y="100.3" width="9.4" height="9.4" fill="#4f46e5"/>
<rect x="40.3" y="100.3" width="9.4" height="9.4" fill="#f59e0b"/>
<rect x="50.3" y="100.3" width="9.4" height="9.4" fill="#f59e0b"/>
<rect x="60.3" y="100.3" width="9.4" height="9.4" fill="#eab308"/>
<rect x="70.3" y="100.3" width="9.4" height="9.4" fill="#eab308"/>
<rect x="80.3" y="100.3" width="9.4" height="9.4" fill="#22c55e"/>
<rect x="90.3" y="100.3" width="9.4" height="9.4" fill="#22c55e"/>
<rect x="100.3" y="100.3" width="9.4" height="9.4" fill="#3b82f6"/>
<rect x="110.3" y="100.3" width="9.4" height="9.4" fill="#4f46e5"/>
<rect x="120.3" y="100.3" width="9.4" height="9.4" fill="#4f46e5"/>
<rect x="20.3" y="110.3" width="9.4" height="9.4" fill="#4f46e5"/>
<rect x="30.3" y="110.3" width="9.4" height="9.4" fill="#4f46e5"/>
<rect x="40.3" y="110.3" width="9.4" height="9.4" fill="#4f46e5"/>
<rect x="50.3" y="110.3" width="9.4" height="9.4" fill="#4f46e5"/>
<rect x="60.3" y="110.3" width="9.4" height="9.4" fill="#eab308"/>
<rect x="70.3" y="110.3" width="9.4" height="9.4" fill="#eab308"/>
<rect x="80.3" y="110.3" width="9.4" height="9.4" fill="#22c55e"/>
<rect x="90.3" y="110.3" width="9.4" height="9.4" fill="#4f46e5"/>
<rect x="100.3" y="110.3" width="9.4" height="9.4" fill="#4f46e5"/>
<rect x="110.3" y="110.3" width="9.4" height="9.4" fill="#4f46e5"/>
<rect x="120.3" y="110.3" width="9.4" height="9.4" fill="#4f46e5"/>
<rect x="30.3" y="120.3" width="9.4" height="9.4" fill="#4f46e5"/>
<rect x="40.3" y="120.3" width="9.4" height="9.4" fill="#4f46e5"/>
<rect x="50.3" y="120.3" width="9.4" height="9.4" fill="#4f46e5"/>
<rect x="60.3" y="120.3" width="9.4" height="9.4" fill="#4f46e5"/>
<rect x="70.3" y="120.3" width="9.4" height="9.4" fill="#4f46e5"/>
<rect x="80.3" y="120.3" width="9.4" height="9.4" fill="#4f46e5"/>
<rect x="90.3" y="120.3" width="9.4" height="9.4" fill="#4f46e5"/>
<rect x="100.3" y="120.3" width="9.4" height="9.4" fill="#4f46e5"/>
<rect x="110.3" y="120.3" width="9.4" height="9.4" fill="#4f46e5"/>
<rect x="120.3" y="120.3" width="9.4" height="9.4" fill="#4f46e5"/>
<rect x="130.3" y="120.3" width="9.4" height="9.4" fill="#4f46e5"/>
<rect x="50.3" y="130.3" width="9.4" height="9.4" fill="#4f46e5"/>
<rect x="60.3" y="130.3" width="9.4" height="9.4" fill="#4f46e5"/>
<rect x="70.3" y="130.3" width="9.4" height="9.4" fill="#4f46e5"/>
<rect x="80.3" y="130.3" width="9.4" height="9.4" fill="#4f46e5"/>
<rect x="90.3" y="130.3" width="9.4" height="9.4" fill="#4f46e5"/>
<rect x="120.3" y="130.3" width="9.4" height="9.4" fill="#4f46e5"/>
<rect x="130.3" y="130.3" width="9.4" height="9.4" fill="#4f46e5"/>
<rect x="140.3" y="130.3" width="9.4" height="9.4" fill="#4f46e5"/>
<rect x="130.3" y="140.3" width="9.4" height="9.4" fill="#4f46e5"/>
<rect x="140.3" y="140.3" width="9.4" height="9.4" fill="#4f46e5"/>
<rect x="150.3" y="140.3" width="9.4" height="9.4" fill="#4f46e5"/>
<rect x="140.3" y="150.3" width="9.4" height="9.4" fill="#4f46e5"/>
<rect x="150.3" y="150.3" width="9.4" height="9.4" fill="#4f46e5"/>
<rect x="160.3" y="150.3" width="9.4" height="9.4" fill="#4f46e5"/>
<rect x="150.3" y="160.3" width="9.4" height="9.4" fill="#4f46e5"/>
<rect x="160.3" y="160.3" width="9.4" height="9.4" fill="#4f46e5"/>
</svg>
